<svg width="189" height="64" viewBox="0 0 189 64" fill="none" xmlns="http://www.w3.org/2000/svg">
<g clip-path="url(#clip0_3116_4023)">
<path d="M173.493 0.754111H15.0198C14.4421 0.754111 13.8714 0.754111 13.2953 0.757262C12.813 0.760412 12.3346 0.769565 11.8477 0.777268C10.7899 0.789715 9.73459 0.882774 8.69096 1.05563C7.64879 1.23226 6.63928 1.56525 5.69655 2.04333C4.75497 2.52547 3.89463 3.15195 3.14673 3.90005C2.3949 4.64605 1.76819 5.50832 1.2907 6.45371C0.811898 7.39723 0.479893 8.40828 0.306155 9.45197C0.130765 10.4943 0.0363863 11.5487 0.0238654 12.6057C0.00924688 13.0887 0.0077031 13.5732 0 14.0563V50.4676C0.0077031 50.9568 0.00924688 51.4306 0.0238654 51.9199C0.0363902 52.9768 0.130769 54.0311 0.306155 55.0734C0.479413 56.1177 0.811438 57.1294 1.2907 58.0732C1.76797 59.0156 2.39477 59.8744 3.14673 60.6162C3.89179 61.3676 4.75269 61.9945 5.69655 62.473C6.63927 62.9524 7.64868 63.2873 8.69096 63.4667C9.73477 63.6381 10.7899 63.7312 11.8477 63.7452C12.3346 63.7559 12.813 63.762 13.2953 63.762C13.8714 63.7652 14.4421 63.7652 15.0198 63.7652H173.493C174.059 63.7652 174.634 63.7652 175.2 63.762C175.68 63.762 176.173 63.7559 176.653 63.7452C177.708 63.732 178.762 63.6389 179.803 63.4667C180.849 63.2861 181.862 62.9512 182.809 62.473C183.752 61.9943 184.612 61.3674 185.357 60.6162C186.107 59.8714 186.735 59.0133 187.218 58.0732C187.694 57.1287 188.023 56.1171 188.193 55.0734C188.369 54.031 188.467 52.9769 188.486 51.9199C188.492 51.4306 188.492 50.9568 188.492 50.4676C188.504 49.8953 188.504 49.3262 188.504 48.7446V15.7762C188.504 15.1993 188.504 14.627 188.492 14.0563C188.492 13.5732 188.492 13.0887 188.486 12.6056C188.467 11.5486 188.369 10.4944 188.193 9.45191C188.022 8.40882 187.693 7.39785 187.218 6.45365C186.246 4.55871 184.704 3.01625 182.809 2.04319C181.862 1.56627 180.849 1.23337 179.803 1.05549C178.762 0.88187 177.708 0.788779 176.653 0.777047C176.173 0.76936 175.68 0.760129 175.2 0.757057C174.634 0.753906 174.059 0.754111 173.493 0.754111Z" fill="#A6A6A6"/>
<path d="M13.3027 62.3872C12.8228 62.3872 12.3544 62.381 11.8782 62.3703C10.8917 62.3574 9.90758 62.2716 8.93379 62.1134C8.02579 61.957 7.14617 61.6661 6.32397 61.2503C5.5093 60.8379 4.76626 60.2972 4.12331 59.6488C3.47105 59.0081 2.92801 58.265 2.51572 57.449C2.09889 56.6276 1.81041 55.7472 1.66035 54.8384C1.49829 53.8619 1.41061 52.8745 1.39806 51.8848C1.38807 51.5526 1.375 50.4464 1.375 50.4464V14.0566C1.375 14.0566 1.38893 12.9675 1.39814 12.6475C1.41015 11.6593 1.49732 10.6734 1.6589 9.69844C1.80924 8.78718 2.09794 7.90423 2.515 7.08017C2.92577 6.26467 3.46579 5.52101 4.11412 4.87802C4.76172 4.22891 5.50714 3.68541 6.3232 3.26734C7.14351 2.85286 8.02146 2.56402 8.92763 2.41049C9.90462 2.2507 10.8922 2.16431 11.8821 2.15205L13.3035 2.13281H175.192L176.631 2.15282C177.612 2.16447 178.59 2.25009 179.558 2.40894C180.474 2.5644 181.361 2.85526 182.19 3.27196C183.825 4.11449 185.156 5.44745 185.995 7.08402C186.405 7.90239 186.689 8.77813 186.838 9.68152C187.001 10.6645 187.093 11.6581 187.112 12.6544C187.116 13.1005 187.116 13.5797 187.116 14.0566C187.129 14.6473 187.129 15.2096 187.129 15.7765V48.7449C187.129 49.3172 187.129 49.8757 187.116 50.4387C187.116 50.951 187.116 51.4202 187.11 51.9032C187.092 52.8817 187.002 53.8576 186.841 54.823C186.694 55.7383 186.407 56.6256 185.99 57.4537C185.575 58.2609 185.035 58.9976 184.39 59.6366C183.747 60.2884 183.002 60.8323 182.186 61.2473C181.358 61.6663 180.473 61.9583 179.558 62.1134C178.585 62.2724 177.6 62.3583 176.614 62.3703C176.152 62.381 175.669 62.3872 175.2 62.3872L173.493 62.3903L13.3027 62.3872Z" fill="black"/>
<path d="M39.0149 32.7335C39.0319 31.4186 39.3811 30.1295 40.0302 28.9859C40.6792 27.8423 41.607 26.8815 42.7272 26.1928C42.0156 25.1765 41.0768 24.3401 39.9854 23.7501C38.894 23.1601 37.6801 22.8327 36.44 22.7939C33.7947 22.5162 31.2303 24.3768 29.8823 24.3768C28.5082 24.3768 26.4328 22.8214 24.1979 22.8674C22.7523 22.9141 21.3435 23.3345 20.1086 24.0876C18.8738 24.8406 17.8551 25.9007 17.1518 27.1646C14.1052 32.4393 16.3777 40.1913 19.2961 44.4549C20.7562 46.5427 22.4627 48.8749 24.6955 48.7922C26.8805 48.7015 27.6966 47.3988 30.3341 47.3988C32.9471 47.3988 33.7127 48.7921 35.9909 48.7396C38.3355 48.7015 39.8127 46.6425 41.2216 44.5349C42.2707 43.0473 43.078 41.4031 43.6136 39.6634C42.2514 39.0872 41.089 38.1229 40.2712 36.8906C39.4534 35.6582 39.0165 34.2124 39.0149 32.7335Z" fill="white"/>
<path d="M34.7099 19.987C35.9883 18.4523 36.6181 16.4798 36.4656 14.4883C34.5125 14.6934 32.7084 15.6269 31.4128 17.1026C30.7793 17.8236 30.2941 18.6623 29.985 19.5709C29.6758 20.4795 29.5488 21.44 29.6111 22.3977C30.588 22.4078 31.5545 22.1961 32.4376 21.7785C33.3208 21.3609 34.0978 20.7483 34.7099 19.987Z" fill="white"/>
<path d="M66.6338 43.5049H59.1774L57.3868 48.7923H54.2285L61.2911 29.2305H64.5724L71.635 48.7923H68.4229L66.6338 43.5049ZM59.9497 41.0651H65.8601L62.9464 32.4841H62.8649L59.9497 41.0651Z" fill="white"/>
<path d="M86.8857 41.6665C86.8857 46.0985 84.5135 48.946 80.9338 48.946C80.027 48.9934 79.1251 48.7845 78.3315 48.3432C77.5379 47.902 76.8846 47.2461 76.4464 46.4508H76.3787V53.5149H73.4512V34.5347H76.2849V36.9068H76.3387C76.797 36.1153 77.4614 35.4628 78.261 35.0188C79.0607 34.5749 79.9658 34.356 80.8799 34.3854C84.4996 34.3855 86.8857 37.2468 86.8857 41.6665ZM83.8767 41.6665C83.8767 38.779 82.3844 36.8807 80.1077 36.8807C77.8709 36.8807 76.3664 38.819 76.3664 41.6665C76.3664 44.5401 77.8709 46.4646 80.1077 46.4646C82.3845 46.4646 83.8767 44.5801 83.8767 41.6665Z" fill="white"/>
<path d="M102.583 41.6665C102.583 46.0985 100.211 48.946 96.6311 48.946C95.7242 48.9934 94.8224 48.7845 94.0288 48.3432C93.2352 47.9019 92.5819 47.2461 92.1437 46.4507H92.0759V53.5149H89.1484V34.5347H91.9821V36.9068H92.0359C92.4943 36.1153 93.1586 35.4628 93.9583 35.0188C94.7579 34.5749 95.663 34.356 96.5772 34.3854C100.197 34.3854 102.583 37.2468 102.583 41.6665ZM99.5739 41.6665C99.5739 38.779 98.0817 36.8807 95.8049 36.8807C93.5682 36.8807 92.0637 38.819 92.0637 41.6665C92.0637 44.5401 93.5682 46.4646 95.8049 46.4646C98.0817 46.4646 99.5739 44.5801 99.5739 41.6665Z" fill="white"/>
<path d="M112.96 43.3438C113.177 45.2837 115.061 46.5574 117.636 46.5574C120.104 46.5574 121.879 45.2836 121.879 43.5345C121.879 42.0161 120.808 41.107 118.273 40.4839L115.738 39.8732C112.146 39.0056 110.478 37.3257 110.478 34.5997C110.478 31.2246 113.42 28.9062 117.596 28.9062C121.73 28.9062 124.563 31.2246 124.659 34.5997H121.704C121.527 32.6475 119.913 31.4692 117.555 31.4692C115.196 31.4692 113.583 32.6614 113.583 34.3967C113.583 35.7796 114.613 36.5934 117.135 37.2164L119.29 37.7456C123.304 38.6948 124.971 40.307 124.971 43.1683C124.971 46.828 122.056 49.1202 117.419 49.1202C113.081 49.1202 110.152 46.8819 109.963 43.3437L112.96 43.3438Z" fill="white"/>
<path d="M131.288 31.1602V34.5353H134.001V36.8536H131.288V44.7162C131.288 45.9376 131.832 46.5068 133.024 46.5068C133.346 46.5012 133.667 46.4786 133.987 46.4391V48.7435C133.451 48.8437 132.906 48.889 132.361 48.8789C129.473 48.8789 128.347 47.7944 128.347 45.0284V36.8536H126.273V34.5353H128.347V31.1602H131.288Z" fill="white"/>
<path d="M135.574 41.6666C135.574 37.1792 138.217 34.3594 142.338 34.3594C146.473 34.3594 149.104 37.1791 149.104 41.6666C149.104 46.1663 146.487 48.9738 142.338 48.9738C138.191 48.9738 135.574 46.1662 135.574 41.6666ZM146.121 41.6666C146.121 38.5883 144.711 36.7715 142.338 36.7715C139.966 36.7715 138.557 38.6022 138.557 41.6666C138.557 44.7571 139.966 46.5601 142.338 46.5601C144.711 46.5601 146.121 44.7571 146.121 41.6666Z" fill="white"/>
<path d="M151.514 34.5345H154.306V36.962H154.374C154.562 36.2039 155.007 35.5339 155.631 35.0646C156.256 34.5954 157.023 34.3555 157.804 34.3853C158.141 34.3841 158.478 34.4208 158.807 34.4945V37.2328C158.381 37.1027 157.937 37.0429 157.492 37.0559C157.066 37.0386 156.642 37.1136 156.249 37.2757C155.855 37.4378 155.501 37.6831 155.212 37.9948C154.922 38.3066 154.703 38.6773 154.57 39.0816C154.437 39.486 154.393 39.9143 154.441 40.3372V48.7966H151.514L151.514 34.5345Z" fill="white"/>
<path d="M172.305 44.6079C171.911 47.197 169.39 48.9738 166.164 48.9738C162.015 48.9738 159.439 46.1939 159.439 41.7343C159.439 37.2607 162.028 34.3594 166.041 34.3594C169.986 34.3594 172.468 37.07 172.468 41.3943V42.3973H162.395V42.5742C162.348 43.0991 162.414 43.6278 162.587 44.1254C162.761 44.6229 163.038 45.0778 163.401 45.4599C163.764 45.842 164.204 46.1425 164.692 46.3415C165.18 46.5404 165.705 46.6333 166.231 46.6139C166.923 46.6787 167.617 46.5185 168.211 46.1571C168.804 45.7956 169.265 45.2523 169.525 44.6079L172.305 44.6079ZM162.408 40.3513H169.539C169.565 39.8793 169.493 39.407 169.329 38.9641C169.164 38.5211 168.909 38.117 168.581 37.7771C168.252 37.4372 167.857 37.1688 167.42 36.9889C166.983 36.809 166.513 36.7214 166.041 36.7315C165.564 36.7287 165.091 36.8203 164.65 37.001C164.209 37.1818 163.808 37.4481 163.47 37.7846C163.133 38.1212 162.865 38.5212 162.683 38.9618C162.5 39.4023 162.407 39.8745 162.408 40.3513Z" fill="white"/>
<path d="M59.5885 14.5107C60.2023 14.4666 60.8181 14.5593 61.3917 14.7821C61.9653 15.0049 62.4823 15.3523 62.9054 15.799C63.3285 16.2458 63.6471 16.7809 63.8384 17.3658C64.0296 17.9507 64.0887 18.5707 64.0113 19.1811C64.0113 22.184 62.3883 23.9101 59.5885 23.9101H56.1934V14.5107H59.5885ZM57.6532 22.5808H59.4254C59.864 22.607 60.3029 22.5351 60.7102 22.3703C61.1174 22.2055 61.4828 21.952 61.7798 21.6282C62.0767 21.3043 62.2977 20.9184 62.4266 20.4984C62.5556 20.0784 62.5893 19.6349 62.5252 19.2003C62.5846 18.7673 62.5475 18.3266 62.4166 17.9097C62.2857 17.4928 62.0641 17.11 61.7679 16.7887C61.4716 16.4675 61.108 16.2157 60.703 16.0515C60.298 15.8873 59.8618 15.8147 59.4254 15.839H57.6532V22.5808Z" fill="white"/>
<path d="M65.6604 20.3562C65.6158 19.8901 65.6691 19.4197 65.8169 18.9754C65.9647 18.5311 66.2038 18.1225 66.5188 17.776C66.8337 17.4295 67.2176 17.1526 67.6459 16.9631C68.0741 16.7737 68.5372 16.6758 69.0055 16.6758C69.4738 16.6758 69.9369 16.7737 70.3651 16.9631C70.7934 17.1526 71.1773 17.4295 71.4923 17.776C71.8072 18.1225 72.0463 18.5311 72.1941 18.9754C72.3419 19.4197 72.3953 19.8901 72.3507 20.3562C72.3961 20.8229 72.3434 21.2938 72.196 21.7389C72.0486 22.1839 71.8096 22.5932 71.4946 22.9404C71.1795 23.2877 70.7953 23.5651 70.3667 23.755C69.938 23.9449 69.4744 24.043 69.0055 24.043C68.5367 24.043 68.073 23.9449 67.6443 23.755C67.2157 23.5651 66.8315 23.2877 66.5164 22.9404C66.2014 22.5932 65.9625 22.1839 65.815 21.7389C65.6676 21.2938 65.6149 20.8229 65.6604 20.3562ZM70.9108 20.3562C70.9108 18.8186 70.22 17.9195 69.0078 17.9195C67.791 17.9195 67.1065 18.8186 67.1065 20.3562C67.1065 21.9061 67.791 22.7984 69.0078 22.7984C70.2201 22.7984 70.9108 21.9 70.9108 20.3562Z" fill="white"/>
<path d="M81.2439 23.9059H79.7917L78.3256 18.6816H78.2149L76.7549 23.9059H75.3166L73.3613 16.8125H74.7812L76.0519 22.2252H76.1565L77.6149 16.8125H78.9579L80.4162 22.2252H80.527L81.7915 16.8125H83.1914L81.2439 23.9059Z" fill="white"/>
<path d="M84.834 16.8158H86.1816V17.9426H86.2862C86.4637 17.5379 86.763 17.1986 87.1424 16.9721C87.5218 16.7456 87.9625 16.6431 88.403 16.6789C88.7481 16.6529 89.0947 16.7049 89.417 16.8311C89.7393 16.9573 90.0291 17.1544 90.2648 17.4077C90.5006 17.6611 90.6764 17.9643 90.7791 18.2948C90.8818 18.6253 90.9088 18.9747 90.8582 19.3171V23.9091H89.4583V19.6687C89.4583 18.5288 88.9629 17.9619 87.9276 17.9619C87.6933 17.9509 87.4594 17.9908 87.2419 18.0788C87.0244 18.1667 86.8285 18.3007 86.6676 18.4714C86.5068 18.6421 86.3847 18.8456 86.3098 19.068C86.235 19.2903 86.2091 19.5262 86.2339 19.7594V23.9091H84.834L84.834 16.8158Z" fill="white"/>
<path d="M93.0898 14.043H94.4897V23.9054H93.0898V14.043Z" fill="white"/>
<path d="M96.4377 20.3564C96.3931 19.8902 96.4465 19.4198 96.5943 18.9755C96.7422 18.5311 96.9813 18.1226 97.2963 17.776C97.6113 17.4295 97.9952 17.1526 98.4235 16.9631C98.8518 16.7737 99.3149 16.6758 99.7832 16.6758C100.252 16.6758 100.715 16.7737 101.143 16.9631C101.571 17.1526 101.955 17.4295 102.27 17.776C102.585 18.1226 102.824 18.5311 102.972 18.9755C103.12 19.4198 103.173 19.8902 103.129 20.3564C103.174 20.823 103.121 21.294 102.974 21.739C102.826 22.1841 102.587 22.5934 102.272 22.9406C101.957 23.2878 101.573 23.5652 101.144 23.7551C100.716 23.945 100.252 24.043 99.7832 24.043C99.3144 24.043 98.8507 23.945 98.422 23.7551C97.9933 23.5652 97.6091 23.2878 97.294 22.9406C96.9789 22.5934 96.74 22.1841 96.5925 21.739C96.445 21.294 96.3923 20.823 96.4377 20.3564ZM101.688 20.3564C101.688 18.8188 100.997 17.9196 99.7851 17.9196C98.5683 17.9196 97.8838 18.8188 97.8838 20.3564C97.8838 21.9063 98.5683 22.7985 99.7851 22.7985C100.997 22.7985 101.688 21.9001 101.688 20.3564Z" fill="white"/>
<path d="M104.602 21.9C104.602 20.6232 105.552 19.8871 107.24 19.7825L109.161 19.6717V19.0595C109.161 18.3103 108.666 17.8872 107.709 17.8872C106.928 17.8872 106.386 18.1741 106.231 18.6756H104.875C105.018 17.4573 106.165 16.6758 107.774 16.6758C109.552 16.6758 110.555 17.5611 110.555 19.0595V23.906H109.207V22.9092H109.097C108.872 23.2668 108.556 23.5583 108.182 23.7539C107.807 23.9496 107.388 24.0424 106.966 24.0229C106.668 24.0539 106.367 24.0221 106.083 23.9297C105.798 23.8372 105.536 23.6861 105.313 23.4861C105.09 23.2861 104.912 23.0416 104.789 22.7684C104.667 22.4952 104.603 22.1994 104.602 21.9ZM109.161 21.2939V20.7009L107.429 20.8116C106.452 20.877 106.009 21.2093 106.009 21.8346C106.009 22.4731 106.563 22.8446 107.325 22.8446C107.548 22.8672 107.773 22.8446 107.987 22.7783C108.202 22.712 108.4 22.6033 108.572 22.4586C108.743 22.3139 108.883 22.1363 108.985 21.9362C109.086 21.7361 109.146 21.5177 109.161 21.2939Z" fill="white"/>
<path d="M112.396 20.3556C112.396 18.1143 113.549 16.6943 115.341 16.6943C115.784 16.6739 116.224 16.7801 116.609 17.0005C116.995 17.2208 117.309 17.5463 117.516 17.9388H117.621V14.043H119.021V23.9054H117.679V22.7847H117.568C117.345 23.1745 117.02 23.4959 116.627 23.7141C116.235 23.9322 115.79 24.0388 115.341 24.0223C113.536 24.0223 112.396 22.6024 112.396 20.3556ZM113.843 20.3556C113.843 21.8602 114.552 22.7655 115.738 22.7655C116.918 22.7655 117.647 21.8471 117.647 20.3618C117.647 18.8834 116.91 17.952 115.738 17.952C114.559 17.952 113.843 18.8634 113.843 20.3556Z" fill="white"/>
<path d="M124.811 20.3562C124.766 19.8901 124.819 19.4197 124.967 18.9754C125.115 18.5311 125.354 18.1225 125.669 17.776C125.984 17.4295 126.368 17.1526 126.796 16.9631C127.224 16.7737 127.688 16.6758 128.156 16.6758C128.624 16.6758 129.087 16.7737 129.516 16.9631C129.944 17.1526 130.328 17.4295 130.643 17.776C130.958 18.1225 131.197 18.5311 131.344 18.9754C131.492 19.4197 131.546 19.8901 131.501 20.3562C131.546 20.8229 131.494 21.2938 131.346 21.7389C131.199 22.1839 130.96 22.5932 130.645 22.9404C130.33 23.2877 129.946 23.5651 129.517 23.755C129.088 23.9449 128.625 24.043 128.156 24.043C127.687 24.043 127.223 23.9449 126.795 23.755C126.366 23.5651 125.982 23.2877 125.667 22.9404C125.352 22.5932 125.113 22.1839 124.965 21.7389C124.818 21.2938 124.765 20.8229 124.811 20.3562ZM130.061 20.3562C130.061 18.8186 129.37 17.9195 128.158 17.9195C126.941 17.9195 126.257 18.8186 126.257 20.3562C126.257 21.9061 126.941 22.7984 128.158 22.7984C129.37 22.7984 130.061 21.9 130.061 20.3562Z" fill="white"/>
<path d="M133.379 16.8158H134.727V17.9426H134.831C135.009 17.5379 135.308 17.1986 135.687 16.9721C136.067 16.7456 136.507 16.6431 136.948 16.6789C137.293 16.6529 137.64 16.7049 137.962 16.8311C138.284 16.9573 138.574 17.1544 138.81 17.4077C139.046 17.6611 139.221 17.9643 139.324 18.2948C139.427 18.6253 139.454 18.9747 139.403 19.3171V23.9091H138.003V19.6687C138.003 18.5288 137.508 17.9619 136.473 17.9619C136.238 17.9509 136.004 17.9908 135.787 18.0788C135.569 18.1667 135.373 18.3007 135.213 18.4714C135.052 18.6421 134.93 18.8456 134.855 19.068C134.78 19.2903 134.754 19.5262 134.779 19.7594V23.9091H133.379V16.8158Z" fill="white"/>
<path d="M147.315 15.0469V16.8452H148.851V18.0244H147.315V21.6718C147.315 22.4148 147.621 22.7402 148.318 22.7402C148.496 22.7396 148.674 22.7288 148.851 22.7079V23.874C148.6 23.9189 148.345 23.9429 148.09 23.9455C146.533 23.9455 145.913 23.3978 145.913 22.0302V18.0243H144.787V16.8451H145.913V15.0469H147.315Z" fill="white"/>
<path d="M150.762 14.043H152.149V17.9519H152.26C152.446 17.5434 152.754 17.2022 153.141 16.9749C153.528 16.7475 153.976 16.6449 154.423 16.6813C154.766 16.6626 155.11 16.7199 155.428 16.8491C155.747 16.9784 156.033 17.1763 156.266 17.4289C156.5 17.6815 156.674 17.9825 156.778 18.3103C156.882 18.6382 156.912 18.9849 156.866 19.3257V23.9054H155.465V19.671C155.465 18.538 154.937 17.9642 153.948 17.9642C153.707 17.9445 153.465 17.9776 153.239 18.0611C153.012 18.1447 152.807 18.2768 152.637 18.4481C152.466 18.6194 152.336 18.8257 152.254 19.0528C152.172 19.2799 152.14 19.5221 152.162 19.7626V23.9054H150.762L150.762 14.043Z" fill="white"/>
<path d="M165.029 21.9909C164.839 22.6392 164.427 23.2 163.865 23.5751C163.303 23.9503 162.627 24.1159 161.955 24.0431C161.488 24.0554 161.024 23.9659 160.594 23.7808C160.165 23.5956 159.781 23.3193 159.47 22.9709C159.158 22.6226 158.926 22.2106 158.789 21.7635C158.652 21.3164 158.615 20.8449 158.679 20.3818C158.616 19.9173 158.655 19.4448 158.791 18.9964C158.927 18.5479 159.158 18.134 159.468 17.7826C159.778 17.4312 160.16 17.1505 160.588 16.9596C161.017 16.7686 161.481 16.6719 161.949 16.6759C163.923 16.6759 165.114 18.0243 165.114 20.2518V20.7403H160.105V20.8187C160.083 21.079 160.116 21.341 160.201 21.588C160.286 21.8349 160.422 22.0613 160.6 22.2526C160.778 22.4439 160.994 22.596 161.234 22.699C161.474 22.802 161.733 22.8537 161.994 22.8508C162.329 22.891 162.668 22.8307 162.968 22.6776C163.269 22.5245 163.517 22.2854 163.681 21.9909L165.029 21.9909ZM160.105 19.7049H163.688C163.705 19.4669 163.673 19.2277 163.593 19.0029C163.512 18.7781 163.386 18.5725 163.221 18.3995C163.057 18.2264 162.858 18.0897 162.638 17.998C162.417 17.9064 162.18 17.8619 161.941 17.8674C161.699 17.8643 161.459 17.9098 161.235 18.0011C161.011 18.0923 160.807 18.2276 160.636 18.3988C160.464 18.5701 160.329 18.7739 160.238 18.9982C160.147 19.2225 160.102 19.4628 160.105 19.7049Z" fill="white"/>
</g>
<defs>
<clipPath id="clip0_3116_4023">
<rect width="188.504" height="63.0111" fill="white" transform="translate(0 0.753906)"/>
</clipPath>
</defs>
</svg>
