<svg width="247" height="95" viewBox="0 0 247 95" fill="none" xmlns="http://www.w3.org/2000/svg">
<g clip-path="url(#clip0_3116_4024)">
<mask id="mask0_3116_4024" style="mask-type:luminance" maskUnits="userSpaceOnUse" x="0" y="0" width="247" height="95">
<path d="M0.503906 0.00292015H246.247V94.5195H0.503906V0.00292015Z" fill="white"/>
</mask>
<g mask="url(#mask0_3116_4024)">
<path d="M222.467 78.7656H24.2866C19.9266 78.7656 16.3594 75.2213 16.3594 70.8892V23.6309C16.3594 19.2989 19.9266 15.7546 24.2866 15.7546H222.467C226.827 15.7546 230.394 19.2989 230.394 23.6309V70.8892C230.394 75.2213 226.827 78.7656 222.467 78.7656Z" fill="black"/>
<path d="M222.467 15.7546H24.2866C19.9266 15.7546 16.3594 19.2989 16.3594 23.6309V70.8892C16.3594 75.2213 19.9266 78.7656 24.2866 78.7656H222.467C226.827 78.7656 230.394 75.2213 230.394 70.8892V23.6309C230.394 19.2989 226.827 15.7546 222.467 15.7546ZM222.467 17.0148C226.138 17.0148 229.125 19.9826 229.125 23.6309V70.8892C229.125 74.5376 226.138 77.5054 222.467 77.5054H24.2866C20.6147 77.5054 17.6277 74.5376 17.6277 70.8892V23.6309C17.6277 19.9826 20.6147 17.0148 24.2866 17.0148H222.467Z" fill="#A6A6A6"/>
<path d="M91.5372 31.8873C91.5372 33.2074 91.144 34.2581 90.356 35.0426C89.4603 35.9751 88.295 36.4414 86.8617 36.4414C85.4872 36.4414 84.3203 35.9688 83.3611 35.0221C82.3987 34.0769 81.9199 32.9033 81.9199 31.5045C81.9199 30.1041 82.3987 28.9321 83.3611 27.9853C84.3203 27.0402 85.4872 26.566 86.8617 26.566C87.5419 26.566 88.1951 26.6983 88.8134 26.963C89.4333 27.2276 89.9296 27.5789 90.3021 28.0184L89.465 28.8501C88.8356 28.1035 87.9684 27.7286 86.8617 27.7286C85.8597 27.7286 84.9941 28.0783 84.2632 28.7777C83.5323 29.4787 83.1677 30.386 83.1677 31.5045C83.1677 32.6214 83.5323 33.5303 84.2632 34.2297C84.9941 34.9307 85.8597 35.2789 86.8617 35.2789C87.924 35.2789 88.8087 34.9276 89.5189 34.2234C89.9787 33.765 90.2435 33.1286 90.3148 32.3095H86.8617V31.1737H91.4706C91.515 31.421 91.5372 31.6589 91.5372 31.8873Z" fill="white"/>
<path d="M91.5372 31.8873C91.5372 33.2074 91.144 34.2581 90.356 35.0426C89.4603 35.9751 88.295 36.4414 86.8617 36.4414C85.4872 36.4414 84.3203 35.9688 83.3611 35.0221C82.3987 34.0769 81.9199 32.9033 81.9199 31.5045C81.9199 30.1041 82.3987 28.9321 83.3611 27.9853C84.3203 27.0402 85.4872 26.566 86.8617 26.566C87.5419 26.566 88.1951 26.6983 88.8134 26.963C89.4333 27.2276 89.9296 27.5789 90.3021 28.0184L89.465 28.8501C88.8356 28.1035 87.9684 27.7286 86.8617 27.7286C85.8597 27.7286 84.9941 28.0783 84.2632 28.7777C83.5323 29.4787 83.1677 30.386 83.1677 31.5045C83.1677 32.6214 83.5323 33.5303 84.2632 34.2297C84.9941 34.9307 85.8597 35.2789 86.8617 35.2789C87.924 35.2789 88.8087 34.9276 89.5189 34.2234C89.9787 33.765 90.2435 33.1286 90.3148 32.3095H86.8617V31.1737H91.4706C91.515 31.421 91.5372 31.6589 91.5372 31.8873Z" stroke="white" stroke-width="0.420074" stroke-miterlimit="10"/>
<path d="M98.8448 27.9437H94.5134V30.9399H98.4199V32.0756H94.5134V35.0718H98.8448V36.2344H93.291V26.7827H98.8448V27.9437Z" fill="white"/>
<path d="M98.8448 27.9437H94.5134V30.9399H98.4199V32.0756H94.5134V35.0718H98.8448V36.2344H93.291V26.7827H98.8448V27.9437Z" stroke="white" stroke-width="0.420074" stroke-miterlimit="10"/>
<path d="M103.997 36.2344H102.774V27.9437H100.117V26.7827H106.654V27.9437H103.997V36.2344Z" fill="white"/>
<path d="M103.997 36.2344H102.774V27.9437H100.117V26.7827H106.654V27.9437H103.997V36.2344Z" stroke="white" stroke-width="0.420074" stroke-miterlimit="10"/>
<path d="M111.385 26.7827H112.607V36.2344H111.385V26.7827Z" fill="white" stroke="white" stroke-width="0.420074" stroke-miterlimit="10"/>
<path d="M118.03 36.2344H116.808V27.9437H114.15V26.7827H120.687V27.9437H118.03V36.2344Z" fill="white"/>
<path d="M118.03 36.2344H116.808V27.9437H114.15V26.7827H120.687V27.9437H118.03V36.2344Z" stroke="white" stroke-width="0.420074" stroke-miterlimit="10"/>
<path d="M126.991 34.2171C127.695 34.926 128.556 35.2789 129.575 35.2789C130.595 35.2789 131.456 34.926 132.16 34.2171C132.864 33.5082 133.217 32.604 133.217 31.5045C133.217 30.4049 132.864 29.4992 132.16 28.7919C131.456 28.083 130.595 27.7286 129.575 27.7286C128.556 27.7286 127.695 28.083 126.991 28.7919C126.289 29.4992 125.935 30.4049 125.935 31.5045C125.935 32.604 126.289 33.5082 126.991 34.2171ZM133.063 35.0079C132.128 35.9641 130.966 36.4414 129.575 36.4414C128.185 36.4414 127.023 35.9641 126.089 35.0079C125.154 34.0533 124.688 32.886 124.688 31.5045C124.688 30.123 125.154 28.9541 126.089 27.9995C127.023 27.0449 128.185 26.566 129.575 26.566C130.958 26.566 132.117 27.0465 133.057 28.0058C133.996 28.9651 134.465 30.1308 134.465 31.5045C134.465 32.886 133.997 34.0533 133.063 35.0079Z" fill="white"/>
<path d="M126.991 34.2171C127.695 34.926 128.556 35.2789 129.575 35.2789C130.595 35.2789 131.456 34.926 132.16 34.2171C132.864 33.5082 133.217 32.604 133.217 31.5045C133.217 30.4049 132.864 29.4992 132.16 28.7919C131.456 28.083 130.595 27.7286 129.575 27.7286C128.556 27.7286 127.695 28.083 126.991 28.7919C126.289 29.4992 125.935 30.4049 125.935 31.5045C125.935 32.604 126.289 33.5082 126.991 34.2171ZM133.063 35.0079C132.128 35.9641 130.966 36.4414 129.575 36.4414C128.185 36.4414 127.023 35.9641 126.089 35.0079C125.154 34.0533 124.688 32.886 124.688 31.5045C124.688 30.123 125.154 28.9541 126.089 27.9995C127.023 27.0449 128.185 26.566 129.575 26.566C130.958 26.566 132.117 27.0465 133.057 28.0058C133.996 28.9651 134.465 30.1308 134.465 31.5045C134.465 32.886 133.997 34.0533 133.063 35.0079Z" stroke="white" stroke-width="0.420074" stroke-miterlimit="10"/>
<path d="M136.178 36.2344V26.7827H137.665L142.288 34.1345H142.342L142.288 32.3135V26.7827H143.512V36.2344H142.236L137.399 28.525H137.346L137.399 30.3476V36.2344H136.178Z" fill="white"/>
<path d="M136.178 36.2344V26.7827H137.665L142.288 34.1345H142.342L142.288 32.3135V26.7827H143.512V36.2344H142.236L137.399 28.525H137.346L137.399 30.3476V36.2344H136.178Z" stroke="white" stroke-width="0.420074" stroke-miterlimit="10"/>
<path d="M185.899 63.0128H188.857V43.3202H185.899V63.0128ZM212.545 50.4137L209.154 58.9517H209.052L205.533 50.4137H202.346L207.624 62.3464L204.616 68.9846H207.7L215.835 50.4137H212.545ZM195.768 60.7759C194.798 60.7759 193.447 60.2954 193.447 59.1029C193.447 57.5844 195.129 57.0015 196.583 57.0015C197.883 57.0015 198.497 57.2803 199.286 57.66C199.056 59.4841 197.476 60.7759 195.768 60.7759ZM196.125 49.9836C193.983 49.9836 191.763 50.9209 190.847 52.9987L193.472 54.0872C194.034 52.9987 195.078 52.6427 196.176 52.6427C197.705 52.6427 199.261 53.5548 199.286 55.1773V55.379C198.75 55.0749 197.604 54.6197 196.201 54.6197C193.371 54.6197 190.489 56.165 190.489 59.0525C190.489 61.688 192.81 63.3861 195.41 63.3861C197.399 63.3861 198.497 62.4992 199.185 61.4595H199.286V62.9797H202.142V55.4294C202.142 51.9338 199.516 49.9836 196.125 49.9836ZM177.841 52.8113H173.634V46.0612H177.841C180.053 46.0612 181.309 47.8807 181.309 49.4355C181.309 50.9619 180.053 52.8113 177.841 52.8113ZM177.765 43.3202H170.677V63.0128H173.634V55.5523H177.765C181.044 55.5523 184.267 53.1925 184.267 49.4355C184.267 45.6784 181.044 43.3202 177.765 43.3202ZM139.111 60.779C137.067 60.779 135.356 59.0793 135.356 56.7447C135.356 54.385 137.067 52.6585 139.111 52.6585C141.129 52.6585 142.711 54.385 142.711 56.7447C142.711 59.0793 141.129 60.779 139.111 60.779ZM142.508 51.5164H142.405C141.741 50.7303 140.465 50.0199 138.856 50.0199C135.483 50.0199 132.393 52.9625 132.393 56.7447C132.393 60.5002 135.483 63.4192 138.856 63.4192C140.465 63.4192 141.741 62.7087 142.405 61.8959H142.508V62.8615C142.508 65.4245 141.129 66.795 138.906 66.795C137.093 66.795 135.968 65.5001 135.509 64.4085L132.929 65.4749C133.67 67.2518 135.637 69.4336 138.906 69.4336C142.38 69.4336 145.318 67.4031 145.318 62.4551V50.4247H142.508V51.5164ZM147.361 63.0128H150.325V43.3187H147.361V63.0128ZM154.691 56.5163C154.615 53.9281 156.709 52.6081 158.215 52.6081C159.392 52.6081 160.387 53.1909 160.719 54.029L154.691 56.5163ZM163.886 54.2826C163.325 52.7861 161.613 50.0199 158.114 50.0199C154.64 50.0199 151.755 52.7341 151.755 56.7195C151.755 60.475 154.615 63.4192 158.445 63.4192C161.537 63.4192 163.325 61.5415 164.066 60.4498L161.767 58.9265C161.001 60.0434 159.953 60.779 158.445 60.779C156.939 60.779 155.866 60.0938 155.176 58.7501L164.192 55.0434L163.886 54.2826ZM92.0534 52.0756V54.9174H98.8977C98.6932 56.5163 98.1573 57.6836 97.3408 58.4949C96.3435 59.4857 94.7851 60.5774 92.0534 60.5774C87.8377 60.5774 84.5431 57.2016 84.5431 53.0145C84.5431 48.8258 87.8377 45.4516 92.0534 45.4516C94.3269 45.4516 95.9868 46.34 97.2124 47.4821L99.2306 45.4768C97.5184 43.8527 95.2464 42.6082 92.0534 42.6082C86.2808 42.6082 81.4277 47.2789 81.4277 53.0145C81.4277 58.7501 86.2808 63.4192 92.0534 63.4192C95.1687 63.4192 97.5184 62.4031 99.3575 60.5002C101.249 58.6225 101.836 55.9839 101.836 53.851C101.836 53.1909 101.785 52.5829 101.682 52.0756H92.0534ZM109.618 60.779C107.575 60.779 105.812 59.1045 105.812 56.7195C105.812 54.3078 107.575 52.6585 109.618 52.6585C111.66 52.6585 113.423 54.3078 113.423 56.7195C113.423 59.1045 111.66 60.779 109.618 60.779ZM109.618 50.0199C105.888 50.0199 102.849 52.8365 102.849 56.7195C102.849 60.5774 105.888 63.4192 109.618 63.4192C113.347 63.4192 116.387 60.5774 116.387 56.7195C116.387 52.8365 113.347 50.0199 109.618 50.0199ZM124.384 60.779C122.34 60.779 120.577 59.1045 120.577 56.7195C120.577 54.3078 122.34 52.6585 124.384 52.6585C126.427 52.6585 128.189 54.3078 128.189 56.7195C128.189 59.1045 126.427 60.779 124.384 60.779ZM124.384 50.0199C120.655 50.0199 117.615 52.8365 117.615 56.7195C117.615 60.5774 120.655 63.4192 124.384 63.4192C128.113 63.4192 131.152 60.5774 131.152 56.7195C131.152 52.8365 128.113 50.0199 124.384 50.0199Z" fill="white"/>
<path d="M49.2024 46.3525L32.3223 64.1532C32.3239 64.1563 32.3239 64.161 32.3254 64.1642C32.8439 66.0971 34.6196 67.5195 36.7282 67.5195C37.5717 67.5195 38.3628 67.2927 39.0414 66.8957L39.0953 66.8642L58.0952 55.9712L49.2024 46.3525Z" fill="#EA4335"/>
<path d="M66.2808 43.3209L66.2649 43.3098L58.0618 38.5856L48.8203 46.7565L58.0951 55.9688L66.2538 51.2918C67.6839 50.523 68.6558 49.0249 68.6558 47.2984C68.6558 45.5814 67.6981 44.0912 66.2808 43.3209Z" fill="#FBBC04"/>
<path d="M32.3233 30.3674C32.2219 30.7391 32.168 31.1298 32.168 31.5331V62.9882C32.168 63.3915 32.2219 63.7822 32.3249 64.1523L49.7838 46.807L32.3233 30.3674Z" fill="#4285F4"/>
<path d="M49.3277 47.2617L58.0635 38.5835L39.0858 27.6511C38.3961 27.24 37.5907 27.0037 36.7298 27.0037C34.6212 27.0037 32.8423 28.4293 32.3239 30.3637L32.3223 30.3685L49.3277 47.2617Z" fill="#34A853"/>
</g>
</g>
<defs>
<clipPath id="clip0_3116_4024">
<rect width="245.743" height="94.5166" fill="white" transform="translate(0.503906)"/>
</clipPath>
</defs>
</svg>


