<svg width="50" height="50" viewBox="0 0 56 55" fill="none" xmlns="http://www.w3.org/2000/svg">
<path d="M19.8281 13.399C20.4886 15.9045 22.0369 17.7148 23.935 19.7684C25.9995 22.002 28.0149 24.2594 27.8675 27.4868C27.8776 27.7092 27.8772 27.9264 27.8675 28.1398V34.22C28.1012 35.7139 26.5585 34.5185 25.2994 36.0902C24.6351 36.9191 23.3857 36.8178 22.1281 37.2692C21.0797 38.5817 20.262 39.9282 19.8281 41.5748H36.1993C35.7043 39.6975 34.7114 38.2105 33.4458 36.719C32.377 36.8551 31.3832 37.5453 30.8023 36.82C29.5427 35.2483 27.9274 35.7139 28.1607 34.22V28.1628C28.1502 27.9422 28.1495 27.7171 28.1599 27.4868C28.0125 24.2594 30.028 22.002 32.0924 19.7684C32.7585 19.0478 33.3813 18.3571 33.9378 17.656C28.1822 17.7566 29.1032 12.7679 19.8281 13.399Z" fill="#F4F2FF"/>
<path d="M17.4577 11.3534C17.7025 16.0353 20.2716 18.8159 22.4329 21.154C24.3468 23.2245 25.9766 24.9889 25.8195 27.4853C25.9766 29.9817 24.3468 31.746 22.4329 33.8165C20.2716 36.1546 17.7023 38.9351 17.4577 43.617H38.5669C38.3223 38.9351 35.7532 36.1546 33.5918 33.8165C31.6778 31.746 30.0481 29.9817 30.2054 27.4853C30.0481 24.9889 31.6778 23.2245 33.5918 21.154C35.7532 18.8159 38.3223 16.0353 38.5669 11.3534H17.4577ZM21.153 22.3379C18.6588 19.6393 15.667 16.4024 15.6935 10.5493V10.4709L15.7009 9.60156H40.3238L40.331 10.4709V10.5493C40.3576 16.4024 37.3659 19.6393 34.8714 22.3379C33.2228 24.1214 31.8207 25.6387 31.9546 27.4205V27.5501C31.8207 29.3318 33.2228 30.8492 34.8714 32.6327C37.3659 35.3313 40.3576 38.568 40.331 44.4213V44.4998L40.3238 45.3688H15.7009L15.6935 44.4998V44.4213C15.667 38.568 18.6588 35.3313 21.153 32.6327C22.8019 30.8492 24.204 29.3318 24.0701 27.5501V27.4205C24.204 25.6387 22.8019 24.1214 21.153 22.3379Z" fill="#6A2FF8"/>
<path fill-rule="evenodd" clip-rule="evenodd" d="M15.2263 8.02734H40.8006C41.7156 8.02734 42.4642 8.77617 42.4642 9.69112C42.4642 10.6061 41.7156 11.3547 40.8006 11.3547H15.2263C14.3113 11.3547 13.5625 10.6061 13.5625 9.69112C13.5625 8.77617 14.3113 8.02734 15.2263 8.02734Z" fill="#6A2FF8"/>
<path fill-rule="evenodd" clip-rule="evenodd" d="M15.2263 43.6172H40.8006C41.7156 43.6172 42.4642 44.366 42.4642 45.2811C42.4642 46.1962 41.7156 46.9449 40.8006 46.9449H15.2263C14.3113 46.9449 13.5625 46.1962 13.5625 45.2811C13.5625 44.366 14.3113 43.6172 15.2263 43.6172Z" fill="#6A2FF8"/>
</svg>
